<svg width="519" height="519" viewBox="0 0 519 519" fill="none" xmlns="http://www.w3.org/2000/svg">
<path fill-rule="evenodd" clip-rule="evenodd" d="M51.9 0H467.1C495.645 0 519 23.355 519 51.9V467.1C519 495.645 495.645 519 467.1 519H51.9C23.355 519 0 495.645 0 467.1V51.9C0 23.355 23.355 0 51.9 0Z" fill="#114973"/>
<mask id="mask0_1603_230" style="mask-type:luminance" maskUnits="userSpaceOnUse" x="0" y="0" width="519" height="519">
<path d="M51.9 0H467.1C495.645 0 519 23.355 519 51.9V467.1C519 495.645 495.645 519 467.1 519H51.9C23.355 519 0 495.645 0 467.1V51.9C0 23.355 23.355 0 51.9 0Z" fill="white"/>
</mask>
<g mask="url(#mask0_1603_230)">
<path d="M546.172 460.035L503.394 407.309L474.461 344.825L430.321 315.522L442.342 342.91L446.657 373.026L433.712 349.794L403.507 313.663V331.734L372.433 301.62L364.277 271.82L341.609 218.204L288.015 155.089L263.037 72.7324C263.037 72.7324 161.923 213.066 154.835 220.716C147.66 228.49 115.505 270.919 115.505 270.919C116.181 269.995 84.9509 326.551 87.8801 322.147L31.0756 393.169L96.0035 330.833C96.0368 330.822 96.6232 330.056 96.645 330L130.816 282.748L160.841 242.156L158.79 253.794C152.008 268.068 142.138 287.12 136.134 301.112C136.134 301.112 115.167 351.147 115.179 351.147C117.679 347.338 44.5156 446.819 44.1668 447.214C44.4824 446.74 122.378 356.588 122.704 356.08L123.042 355.405L147.321 307.569C154.723 293.383 166.384 274.49 174.36 260.407L174.766 258.785L187.249 209.044L255.771 113.787L266.575 232.309L280.94 276.067L318.952 312.053L323.706 359.731L347.467 389.272V418.902L397.524 487.052L315.415 425.358L263.037 330.089L284.477 466.48L241.599 438.156L227.346 476.766L180.928 511.545L157.777 536.049H472.321L456.154 484.889L410.413 438.426L396.6 398.848L412.137 427.239C412.137 427.239 469.099 476.282 471.69 478.861C474.282 481.452 505.354 508.12 505.354 508.12L519.639 536.049H678.235L546.172 460.035Z" fill="#FEFEFE"/>
<path d="M182.146 397.037L178.608 371.328L233.306 232.312L173.854 288.971L150.081 328.785L140.483 409.937L125.014 381.613L109.636 420.224L65.5507 466.483L26.3205 493.499H-6.6785L-71.4258 521.034L-18.3383 477.581L-1.68677 420.764L-18.8802 431.816L-48.6116 479.394L-159.235 536.052H28.1349L122.682 470.426L166.665 429.191L182.146 397.037Z" fill="#FEFEFE"/>
</g>
</svg>
