<svg xmlns="http://www.w3.org/2000/svg" viewBox="0 0 1920 1080" preserveAspectRatio="xMidYMid slice" ref="svgRef">
    <path
        d="M 712.004 507.6 L 705.337 400.275 L 710.004 397.575 L 709.337 392.85 L 782.003 371.925 L 920.67 470.475 L 935.336 466.425 L 956.003 481.95 L 1104.67 429.3 L 1171.34 473.85 L 1167.34 523.125 L 1208 548.775 L 1208 560.25 L 1215.34 567.675 L 1208 570.375 L 1215.34 596.7 L 952.003 723.6 L 712.004 507.6 Z">
    </path>
    <path
        d="M 1292.67 119.475 L 1317.34 101.925 L 1450 137.7 L 1438.66 142.425 L 1436.66 158.625 L 1475.33 174.15 L 1481.33 195.75 L 1334 245.025 L 1190 237.6 L 1202.67 151.2 L 1296.67 158.625 L 1302 124.875 L 1292.67 119.475 Z">
    </path>
    <path
        d="M 1458.66 265.95 L 1450 311.175 L 1501.33 331.425 L 1491.33 387.45 L 1544 404.325 L 1564.66 395.55 L 1604.66 413.1 L 1851.33 303.75 L 1856.66 286.875 L 1843.99 283.5 L 1845.99 278.1 L 1809.33 266.625 L 1822.66 218.7 L 1815.99 217.35 L 1817.33 212.625 L 1702.66 182.925 L 1670 193.725 L 1670 197.1 L 1667.33 198.45 L 1659.33 226.8 L 1654.66 242.325 L 1644 245.7 L 1632.66 242.325 L 1623.33 245.7 L 1620.66 255.825 L 1594.66 263.925 L 1570 255.825 L 1559.33 259.2 L 1558.66 265.275 L 1504.66 247.05 L 1462.66 260.55 L 1462.66 264.6 L 1458.66 265.95 Z">
    </path>
    <path
        d="M 1329.34 256.5 L 1328 261.9 L 1449.33 309.825 L 1458 261.225 L 1505.33 246.375 L 1554 263.25 L 1574 254.475 L 1587.33 260.55 L 1626 240.975 L 1637.33 195.075 L 1632.66 193.725 L 1636 178.2 L 1592 166.05 L 1493.33 192.375 L 1430.66 211.95 L 1337.33 241.65 L 1334.66 255.15 L 1329.34 256.5 Z">
    </path>
    <path
        d="M 1518.66 448.2 L 1333.33 527.175 L 1214 463.725 L 1217.34 423.225 L 1266 407.7 L 1158.67 359.1 L 1160 322.65 L 1206 309.825 L 1211.34 251.1 L 1258.67 237.6 L 1296 252.45 L 1311.34 247.725 L 1324 252.45 L 1324 261.9 L 1501.33 332.775 L 1488.66 393.525 L 1526 408.375 L 1526 412.425 L 1541.33 419.175 L 1521.33 428.625 L 1518.66 448.2 Z">
    </path>
    <path
        d="M 63.333 562.95 L 119.333 723.6 L 167.333 706.725 L 156.666 675 L 168.666 670.275 L 167.333 666.225 L 299.333 624.375 L 315.333 651.375 L 530.004 578.475 L 524.671 556.875 L 535.337 553.5 L 534.671 547.425 L 578.004 533.25 L 562.671 461.025 L 532.671 432 L 246.666 512.325 L 243.999 508.95 L 142.666 537.3 L 142.666 540.675 L 63.333 562.95 Z">
    </path>
    <path
        d="M 767.337 749.25 L 770.67 775.575 L 287.999 996.3 L 274.666 961.2 L 253.333 968.625 L 164 726.975 L 175.333 722.925 L 157.333 675 L 169.333 670.275 L 168 666.225 L 299.333 625.725 L 331.333 693.9 L 413.338 664.875 L 411.338 661.5 L 440.671 650.7 L 438.671 641.25 L 466.671 631.8 L 475.337 645.3 L 503.337 636.525 L 501.337 633.825 L 538.671 621 L 525.337 556.875 L 535.337 553.5 L 535.337 547.425 L 630.004 517.05 L 634.004 521.775 L 638.67 519.75 L 660.67 541.35 L 660.67 548.775 L 668.67 556.2 L 680.67 552.15 L 712.004 583.2 L 713.337 600.75 L 718.67 606.825 L 719.337 614.25 L 736.67 635.175 L 738.67 657.45 L 733.337 659.475 L 733.337 667.575 L 739.337 674.325 L 738.67 683.775 L 788.67 739.8 L 767.337 749.25 Z">
    </path>
    <path
        d="M 1020.67 251.775 L 1115.34 228.15 L 1168 249.75 L 1176.67 247.725 L 1198 255.825 L 1198 262.575 L 1202.67 264.6 L 1200.67 304.425 L 1100.67 329.4 L 1056 307.8 L 1040 313.2 L 1003.34 294.3 L 1002.67 274.05 L 998.003 272.025 L 998.003 264.6 L 1020.67 258.525 L 1020.67 251.775 Z">
    </path>
    <path
        d="M 623.337 388.125 L 627.337 434.7 L 650.67 437.4 L 658.67 435.375 L 658.67 442.8 L 678.67 461.7 L 708.67 452.925 L 706.004 423.9 L 704.67 400.275 L 709.337 398.25 L 708.67 392.85 L 782.003 371.925 L 788.67 377.325 L 794.003 378 L 840.67 411.75 L 861.337 407.025 L 856.003 273.375 L 836.67 262.575 L 792.003 273.375 L 795.337 321.975 L 758.003 331.425 L 758.003 338.175 L 762.003 340.2 L 650.004 370.575 L 650.004 381.375 L 623.337 388.125 Z">
    </path>
</svg>