<svg xmlns="http://www.w3.org/2000/svg" viewBox="0 0 1920 1080">
    <path
        d="M 1129.5 330.996 L 1451 305.996 L 1821.5 348.826 L 1821.5 363.826 L 1850 366.496 L 1850 447.996 L 1800 447.996 L 1800 439.996 L 1451 427.996 L 1129.5 435.996 L 1129.5 330.996 Z">
    </path>
    <path
        d="M 568 360.496 L 1052.5 317.996 L 1126.5 323.996 L 1126.5 438.496 L 1027.5 438.496 L 568 447.996 L 568 360.496 Z">
    </path>
    <path
        d="M 545.5 452.996 L 1029.5 439.996 L 1081 439.996 L 1081 509.496 L 1032.5 509.496 L 545.5 509.496 L 545.5 452.996 Z">
    </path>
    <path
        d="M 545.5 510.996 L 1029.5 510.996 L 1081 510.996 L 1081 600.496 L 1032 600.496 L 545.5 576.996 L 545.5 510.996 Z">
    </path>
    <path
        d="M 548.5 581.996 L 1031 602.996 L 1079.5 602.996 L 1079.5 655.496 L 913.502 662.996 L 913.502 713.48 L 464 662.996 L 464 622.996 L 548.5 616.496 L 548.5 581.996 Z">
    </path>
    <path
        d="M 1083.5 437.996 L 1457 429.996 L 1799.5 440.496 L 1799.5 449.496 L 1850 449.496 L 1850 523.36 L 1082 526.996 L 1083.5 437.996 Z">
    </path>
    <path d="M 1082 528.496 L 1850 524.996 L 1850 590.496 L 1459 621.496 L 1082 604.996 L 1082 528.496 Z"></path>
    <path
        d="M 1085 607.496 L 1457 622.996 L 1850 591.496 L 1850 677.996 L 1612.5 711.179 L 1569.5 711.179 L 1260.5 755.496 L 916.502 713.496 L 916.502 666.088 L 1085 658.496 L 1085 607.496 Z">
    </path>
    <path
        d="M 1571.5 712.496 L 1611 714.496 L 1850 683.496 L 1850 752.996 L 1800 761.996 L 1800 769.496 L 1765.5 775.996 L 1751.5 775.996 L 1751.5 779.996 L 1612.5 805.496 L 1571.5 800.996 L 1571.5 712.496 Z">
    </path>
    <path
        d="M 1571.5 804.996 L 1609.5 809.496 L 1801 771.996 L 1801 764.996 L 1850 755.996 L 1850 830.496 L 1820 838.239 L 1820 847.239 L 1609.5 898.496 L 1571.5 894.996 L 1571.5 804.996 Z">
    </path>
    <path
        d="M 63.5 629.996 L 1262.5 758.496 L 1569 715.496 L 1569 877.277 L 1256 952.996 L 63.5 718.996 L 63.5 629.996 Z">
    </path>
    <path
        d="M 1572 900.496 L 1611 905.496 L 1820 852.996 L 1820 900.496 L 1776 911.996 L 1776 924.996 L 1716 940.996 L 1688 935.996 L 1674 942.996 L 1572 926.996 L 1572 900.496 Z">
    </path>
    <path d="M 261 387.496 L 566.5 362.496 L 566.5 433.996 L 543.5 433.996 L 542 451.496 L 261 458.996 L 261 387.496 Z">
    </path>
    <path d="M 241.5 460.496 L 546 453.496 L 546 516.996 L 241.5 516.996 L 241.5 460.496 Z"></path>
    <path d="M 241.5 516.496 L 546 518.996 L 546 582.496 L 241.5 573.496 L 241.5 516.496 Z"></path>
    <path
        d="M 223 577.339 L 546 586.076 L 546 615.996 L 462 620.996 L 462 665.496 L 59 626.996 L 59 601.996 L 223 597.297 L 223 577.339 Z">
    </path>
</svg>