<svg viewBox="0 0 1920 1080" xmlns="http://www.w3.org/2000/svg">
    <path d="M97.5 408.5H63.5V422.5H38V488L475.5 495V417.5H448V394L97.5 379.5V408.5Z" />
    <path d="M475.5 497.5L36 489.5V564.5L475.5 568.5V497.5Z" />
    <path d="M475.5 570.5L36 568V637.5L475.5 640V570.5Z" />
    <path d="M475.5 642.5L36 640V709.5L475.5 712V642.5Z" />
    <path d="M475.5 715.5L36 713V785H475.5V715.5Z" />
    <path d="M475.5 787H36V870.5L475.5 865.5V787Z" />
    <path d="M447 868.5L94.5 871.721V913.977L81 914V947.5L447 932V868.5Z" />
    <path d="M976.5 512.5V434.5L478.5 422.5V512.5H976.5Z" />
    <path d="M976.5 569V515.5L478.5 513V569H976.5Z" />
    <path d="M976.5 624V570.5H478.5V626.5L976.5 624Z" />
    <path d="M977 680.5V625.5L479 627V692.5L977 680.5Z" />
    <path d="M976.5 741V684.5L478.5 694.5V753L976.5 741Z" />
    <path d="M976.5 796.5V744L478.5 754V810L976.5 796.5Z" />
    <path d="M971 845.5V799.5L478.5 812V865.5L971 845.5Z" />
    <path d="M1455 823.5V781L980 798V846L1455 823.5Z" />
    <path d="M981 437V513.5H1442.5V450L981 437Z" />
    <path d="M981 515.5V568L1455 570V518L981 515.5Z" />
    <path d="M981 571V624.5H1455V572L981 571Z" />
    <path d="M981 626V679.5L1455 671.5V626H981Z" />
    <path d="M981 681.5V740.5L1455 725.5V674L981 681.5Z" />
    <path d="M980 742.5V796.5L1455 778.5V728L980 742.5Z" />
    <path d="M1636 508.5L1444.5 515V450L1636 434L1832.5 441.5V465H1849.5V515L1636 508.5Z" />
    <path d="M1636 571.5L1456 571V517L1636 510.5L1849.5 517.5V571.5H1636Z" />
    <path d="M1636 629L1456 625.5V572.5H1636H1849.5V629H1636Z" />
    <path d="M1636 681.5L1456 674.5V627L1636 630H1849.5V679.5L1636 681.5Z" />
    <path d="M1636 739L1456 726V676L1636 683L1849.5 681V735L1636 739Z" />
    <path d="M1636 800L1456 780.5V727L1636 740L1849.5 737V791L1636 800Z" />
    <path d="M1636 802.5L1457 782.5V827.5L1636 855.5L1850 846.5V793L1636 802.5Z" />
</svg>