<svg viewBox="0 0 1920 1080" xmlns="http://www.w3.org/2000/svg">
    <path d="M273.999 483.5L94 480V413L124 411.5V393.5L361 367.5L687.5 381.5V480L273.999 483.5Z" />
    <path d="M348.5 567L94 552V483L348.5 485L722 480V560.5L348.5 567Z" />
    <path d="M348.5 650L94 620V554L348.5 568L722 562.5V638.5L348.5 650Z" />
    <path d="M270 726.5V804.5L242 806.5L96 756V690.5L270 726.5Z" />
    <path d="M270 805.5V872.5L233.5 876.5L96 820.5V758.5L241.5 808L270 805.5Z" />
    <path d="M155.5 893.5L126 881V868H122.5L123 846L120.5 844L121.5 834.5L214.5 871L162 881L155.5 893.5Z" />
    <path d="M348.5 742L94 687.5V621.5L348.5 652L722 639V686L848.5 703.5V746L481.5 777L348.5 742Z" />
    <path d="M274.5 729V874L482 947L1872 739V645L482 780L274.5 729Z" />
    <path d="M691.5 374.5V476.5L742 480L1301.5 485.5V415H1281.5V393.5L743.5 369.5L691.5 374.5Z" />
    <path d="M722.5 484.5V560H759.5L1299 546.5V487.5L759.5 484.5H722.5Z" />
    <path d="M722.5 562V639.5L758 642L1299 613.5V547.5L759.5 562H722.5Z" />
    <path d="M722.5 640.5V684.5L851 702V744L1384 692.5V659.5L1279.5 651.5V619L759.5 644.5L722.5 640.5Z" />
    <path d="M1282 414.5V394.5L1647.5 408V418L1716.5 419.5V484.5L1302 486.5L1304 414.5H1282Z" />
    <path d="M1302.5 545V488L1747.5 486V536L1302.5 545Z" />
    <path d="M1302.5 613V545.5L1747.5 538V585.5L1302.5 613Z" />
    <path d="M1302.5 614.5L1715.5 589V614L1869.5 623.5V644L1385.5 690.5V658.5L1282.5 651.5V618L1302.5 614.5Z" />
</svg>